<?xml version="1.0"?>
<svg xmlns="http://www.w3.org/2000/svg" xmlns:xlink="http://www.w3.org/1999/xlink" xmlns:svgjs="http://svgjs.com/svgjs" version="1.1" width="512" height="512" x="0" y="0" viewBox="0 0 436.907 436.907" style="enable-background:new 0 0 512 512" xml:space="preserve" class=""><g>
<path xmlns="http://www.w3.org/2000/svg" style="" d="M430.08,375.467H6.827V228.83c0-9.499,7.7-17.203,17.203-17.203h388.847  c9.499,0,17.203,7.7,17.203,17.203V375.467z" fill="#ffffff" data-original="#ffffff" class=""/>
<path xmlns="http://www.w3.org/2000/svg" style="" d="M430.08,382.293H6.827c-3.768,0-6.827-3.058-6.827-6.827V228.83c0-13.251,10.779-24.03,24.03-24.03  h388.847c13.251,0,24.03,10.779,24.03,24.03v146.637C436.907,379.235,433.848,382.293,430.08,382.293z M13.653,368.64h409.6V228.83  c0-5.724-4.656-10.377-10.377-10.377H24.03c-5.721,0-10.377,4.652-10.377,10.377V368.64z" fill="#604e18" data-original="#602f75" class=""/>
<rect xmlns="http://www.w3.org/2000/svg" x="13.653" y="293.547" style="" width="409.6" height="81.92" fill="#ffffff" data-original="#eaeaea" class=""/>
<rect xmlns="http://www.w3.org/2000/svg" x="47.787" y="184.32" style="" width="88.747" height="27.307" fill="#a37d23" data-original="#ea3457" class=""/>
<path xmlns="http://www.w3.org/2000/svg" style="" d="M136.533,218.453H47.787c-3.768,0-6.827-3.058-6.827-6.827V184.32c0-3.768,3.058-6.827,6.827-6.827  h88.747c3.768,0,6.827,3.058,6.827,6.827v27.307C143.36,215.395,140.302,218.453,136.533,218.453z M54.613,204.8h75.093v-13.653  H54.613V204.8z" fill="#604e18" data-original="#602f75" class=""/>
<rect xmlns="http://www.w3.org/2000/svg" x="300.373" y="184.32" style="" width="88.747" height="27.307" fill="#a37d23" data-original="#ea3457" class=""/>
<g xmlns="http://www.w3.org/2000/svg">
	<path style="" d="M389.12,218.453h-88.747c-3.768,0-6.827-3.058-6.827-6.827V184.32c0-3.768,3.058-6.827,6.827-6.827   h88.747c3.768,0,6.827,3.058,6.827,6.827v27.307C395.947,215.395,392.888,218.453,389.12,218.453z M307.2,204.8h75.093v-13.653   H307.2V204.8z" fill="#604e18" data-original="#602f75" class=""/>
	<path style="" d="M347.023,190.01c-1.86,0-3.717-0.758-5.065-2.249L218.453,51.139L94.949,187.761   c-2.533,2.802-6.847,3.014-9.643,0.488c-2.796-2.526-3.014-6.844-0.485-9.639L213.388,36.386c2.591-2.867,7.54-2.867,10.131,0   l128.567,142.223c2.529,2.796,2.311,7.113-0.485,9.639C350.293,189.426,348.658,190.01,347.023,190.01z" fill="#604e18" data-original="#602f75" class=""/>
</g>
<circle xmlns="http://www.w3.org/2000/svg" style="" cx="218.453" cy="47.787" r="20.48" fill="#d39e37" data-original="#00e7ff" class=""/>
<rect xmlns="http://www.w3.org/2000/svg" x="6.827" y="375.467" style="" width="423.253" height="27.307" fill="#c7a451" data-original="#ffe600" class=""/>
<path xmlns="http://www.w3.org/2000/svg" style="" d="M430.08,409.6H6.827C3.058,409.6,0,406.542,0,402.773v-27.307c0-3.768,3.058-6.827,6.827-6.827  H430.08c3.768,0,6.827,3.058,6.827,6.827v27.307C436.907,406.542,433.848,409.6,430.08,409.6z M13.653,395.947h409.6v-13.653h-409.6  V395.947z" fill="#604e18" data-original="#602f75" class=""/>
<g xmlns="http://www.w3.org/2000/svg">
	<path style="" d="M120.596,278.095c0,2.574-0.638,4.448-1.905,5.632c-1.27,1.188-3.072,1.778-5.414,1.778   c-0.331,0-0.799,0.027-1.41,0.072c-0.611,0.055-1.26,0.188-1.949,0.399c-0.693,0.212-1.393,0.526-2.099,0.932   c-0.71,0.413-1.359,0.973-1.952,1.686c-0.594,0.707-1.072,1.608-1.434,2.693c-0.362,1.085-0.543,2.386-0.543,3.901v14.141   c0,1.348-0.075,2.666-0.222,3.953c-0.147,1.287-0.488,2.427-1.014,3.434s-1.287,1.819-2.273,2.447   c-0.99,0.628-2.324,0.939-4.004,0.939c-1.649,0-2.949-0.314-3.908-0.939c-0.952-0.628-1.686-1.44-2.198-2.447   c-0.512-1.007-0.84-2.147-0.99-3.434c-0.147-1.287-0.222-2.608-0.222-3.953v-27.679c0-1.386,0.075-2.727,0.222-4.028   c0.15-1.307,0.478-2.468,0.99-3.485c0.509-1.021,1.242-1.84,2.198-2.447c0.956-0.608,2.256-0.915,3.908-0.915   c1.679,0,2.973,0.365,3.881,1.113c0.908,0.741,1.574,1.693,2,2.867c0.43,1.167,0.676,2.468,0.744,3.901   c0.068,1.434,0.096,2.826,0.096,4.181h0.792c0.461-1.847,1.068-3.519,1.826-5.021c0.761-1.498,1.601-2.768,2.522-3.806   c0.922-1.034,1.911-1.833,2.963-2.393c1.058-0.56,2.109-0.84,3.164-0.84c1.287,0,2.335,0.14,3.14,0.42   c0.806,0.28,1.44,0.713,1.905,1.307c0.461,0.594,0.775,1.352,0.935,2.273C120.515,275.705,120.596,276.808,120.596,278.095z" fill="#d39e37" data-original="#00e7ff" class=""/>
	<path style="" d="M167.946,291.932c0,0.526-0.034,1.147-0.099,1.853c-0.065,0.707-0.321,1.386-0.765,2.028   c-0.447,0.642-1.147,1.195-2.103,1.652c-0.952,0.468-2.307,0.693-4.055,0.693h-19.671v4.748c0,0.792,0.099,1.615,0.297,2.475   c0.198,0.853,0.532,1.645,1.014,2.365c0.478,0.727,1.109,1.321,1.905,1.778c0.788,0.468,1.761,0.693,2.915,0.693   c1.318,0,2.331-0.154,3.041-0.468c0.707-0.314,1.266-0.7,1.679-1.161c0.41-0.468,0.782-0.959,1.109-1.488s0.768-1.021,1.311-1.481   c0.543-0.461,1.304-0.853,2.273-1.167c0.973-0.307,2.318-0.468,4.031-0.468c0.823,0,1.625,0.068,2.396,0.201   c0.775,0.126,1.457,0.379,2.051,0.741c0.594,0.362,1.068,0.867,1.434,1.505s0.543,1.481,0.543,2.502   c0,2.147-0.672,3.932-2.024,5.366c-1.352,1.434-3.052,2.58-5.093,3.434c-2.045,0.86-4.26,1.468-6.646,1.826   c-2.389,0.365-4.622,0.546-6.697,0.546c-2.737-0.034-5.338-0.379-7.81-1.041c-2.475-0.659-4.656-1.713-6.55-3.161   c-1.894-1.454-3.403-3.345-4.523-5.687c-1.12-2.342-1.679-5.205-1.679-8.602v-11.568c0-3.127,0.369-5.779,1.113-7.953   c0.741-2.181,1.703-3.987,2.891-5.441c1.188-1.447,2.519-2.58,4.004-3.386c1.485-0.806,2.983-1.406,4.499-1.799   c1.512-0.399,2.956-0.645,4.325-0.748c1.365-0.092,2.546-0.147,3.533-0.147c3.331,0,6.171,0.3,8.527,0.894s4.328,1.365,5.905,2.321   c1.584,0.952,2.833,2.062,3.758,3.314c0.925,1.253,1.615,2.546,2.075,3.881c0.461,1.335,0.758,2.686,0.891,4.055   c0.13,1.365,0.198,2.639,0.198,3.826v3.065H167.946z M141.257,290.748h12.356c0-1.546-0.044-2.925-0.123-4.127   c-0.082-1.202-0.331-2.212-0.744-3.041c-0.41-0.819-1.055-1.447-1.925-1.881c-0.874-0.427-2.116-0.642-3.731-0.642   c-1.352,0-2.417,0.212-3.191,0.642c-0.775,0.433-1.358,0.966-1.754,1.608c-0.396,0.645-0.642,1.328-0.744,2.055   c-0.096,0.727-0.147,1.365-0.147,1.925v3.461H141.257z" fill="#d39e37" data-original="#00e7ff" class=""/>
	<path style="" d="M191.177,283.628c0,0.659,0.212,1.273,0.642,1.833c0.43,0.56,1.014,1.092,1.758,1.608   c0.741,0.505,1.597,1.014,2.57,1.505c0.969,0.495,1.983,0.986,3.041,1.481c1.615,0.792,3.26,1.638,4.943,2.546   c1.679,0.908,3.209,1.966,4.598,3.188c1.382,1.219,2.509,2.632,3.383,4.226c0.874,1.601,1.311,3.485,1.311,5.659   c0,1.98-0.287,3.727-0.864,5.239c-0.577,1.512-1.345,2.826-2.301,3.925c-0.956,1.106-2.065,2.021-3.338,2.748   c-1.266,0.727-2.604,1.3-4.004,1.727c-1.399,0.434-2.823,0.734-4.273,0.922c-1.451,0.181-2.819,0.266-4.103,0.266   c-2.536,0-4.748-0.212-6.622-0.642c-1.874-0.43-3.492-1-4.844-1.707c-1.352-0.707-2.464-1.512-3.338-2.42   c-0.874-0.908-1.556-1.853-2.051-2.84c-0.498-0.993-0.843-1.973-1.041-2.946c-0.198-0.966-0.297-1.867-0.297-2.693   c0-1.973,0.553-3.427,1.655-4.345c1.103-0.918,2.792-1.386,5.065-1.386c1.645,0,2.997,0.447,4.055,1.341   c1.055,0.887,1.615,2.321,1.679,4.301c0.034,0.652,0.222,1.181,0.567,1.58c0.348,0.393,0.792,0.713,1.338,0.959   c0.546,0.246,1.143,0.413,1.802,0.495c0.659,0.085,1.3,0.126,1.925,0.126c1.287,0,2.335-0.341,3.14-1.014   c0.806-0.672,1.208-1.56,1.208-2.645c0-0.922-0.27-1.785-0.816-2.594c-0.543-0.806-1.26-1.553-2.15-2.246   c-0.887-0.693-1.901-1.358-3.038-2c-1.14-0.645-2.301-1.294-3.485-1.952c-1.485-0.792-2.973-1.635-4.475-2.519   c-1.498-0.894-2.857-1.881-4.076-2.966c-1.219-1.085-2.205-2.314-2.966-3.686c-0.758-1.365-1.137-2.918-1.137-4.666   c0-2.574,0.42-4.721,1.26-6.455c0.84-1.727,2.068-3.127,3.683-4.198c1.615-1.072,3.584-1.833,5.905-2.301   c2.324-0.461,4.966-0.72,7.933-0.785h0.788c2.669,0,4.932,0.225,6.796,0.686c1.86,0.468,3.41,1.065,4.646,1.806   c1.232,0.741,2.205,1.574,2.915,2.492c0.707,0.925,1.232,1.853,1.58,2.792c0.348,0.939,0.56,1.84,0.642,2.693   c0.079,0.86,0.123,1.587,0.123,2.181c0,0.986-0.208,1.799-0.618,2.447c-0.413,0.642-0.956,1.154-1.635,1.526   c-0.672,0.379-1.44,0.645-2.297,0.792c-0.857,0.147-1.748,0.239-2.669,0.273c-0.788,0-1.505-0.133-2.15-0.393   c-0.642-0.266-1.195-0.594-1.655-0.993c-0.461-0.393-0.812-0.84-1.062-1.335c-0.249-0.495-0.372-0.973-0.372-1.434   c-0.068-1.253-0.567-2.205-1.505-2.867c-0.939-0.662-2.082-0.986-3.434-0.986c-0.563,0-1.096,0.055-1.608,0.174   c-0.512,0.113-0.973,0.314-1.386,0.594c-0.41,0.28-0.741,0.645-0.986,1.113C191.3,282.313,191.177,282.907,191.177,283.628z" fill="#d39e37" data-original="#00e7ff" class=""/>
	<path style="" d="M220.935,289.266c0-3.034,0.41-5.608,1.232-7.714s1.888-3.874,3.191-5.287   c1.3-1.42,2.751-2.519,4.349-3.314c1.597-0.792,3.171-1.386,4.721-1.778c1.546-0.393,2.99-0.642,4.325-0.741   c1.335-0.099,2.379-0.147,3.14-0.147c0.758,0,1.792,0.048,3.113,0.147c1.318,0.099,2.727,0.348,4.226,0.741   c1.495,0.393,3.014,0.986,4.547,1.778s2.915,1.894,4.151,3.314c1.236,1.413,2.249,3.181,3.041,5.287   c0.792,2.106,1.188,4.68,1.188,7.714v12.254c0,3.034-0.393,5.608-1.188,7.714c-0.788,2.106-1.802,3.874-3.041,5.287   c-1.232,1.42-2.618,2.519-4.151,3.314s-3.052,1.386-4.547,1.778c-1.498,0.393-2.912,0.642-4.226,0.741   c-1.321,0.099-2.355,0.147-3.113,0.147c-0.761,0-1.806-0.048-3.14-0.147c-1.335-0.099-2.775-0.348-4.325-0.741   c-1.55-0.393-3.123-0.986-4.721-1.778c-1.601-0.792-3.052-1.894-4.349-3.314c-1.304-1.413-2.365-3.181-3.191-5.287   c-0.826-2.106-1.232-4.68-1.232-7.714V289.266z M236.158,304.981c0.031,0.959,0.263,1.799,0.69,2.519   c0.362,0.659,0.928,1.246,1.707,1.761c0.775,0.505,1.888,0.768,3.338,0.768c1.382,0,2.447-0.259,3.188-0.768   c0.744-0.512,1.294-1.099,1.655-1.761c0.393-0.72,0.628-1.56,0.689-2.519v-17.893c-0.065-0.986-0.297-1.894-0.689-2.714   c-0.362-0.659-0.915-1.28-1.655-1.853c-0.741-0.58-1.802-0.867-3.188-0.867c-1.451,0-2.563,0.287-3.338,0.867   c-0.778,0.573-1.345,1.195-1.707,1.853c-0.427,0.819-0.659,1.727-0.69,2.714V304.981z" fill="#d39e37" data-original="#00e7ff" class=""/>
	<path style="" d="M304.07,278.095c0,2.574-0.638,4.448-1.905,5.632c-1.27,1.188-3.072,1.778-5.414,1.778   c-0.331,0-0.799,0.027-1.41,0.072c-0.611,0.055-1.26,0.188-1.949,0.399c-0.693,0.212-1.393,0.526-2.099,0.932   c-0.71,0.413-1.359,0.973-1.952,1.686c-0.594,0.707-1.072,1.608-1.434,2.693c-0.362,1.085-0.543,2.386-0.543,3.901v14.141   c0,1.348-0.075,2.666-0.222,3.953c-0.147,1.287-0.488,2.427-1.014,3.434c-0.526,1.007-1.287,1.819-2.273,2.447   c-0.99,0.628-2.324,0.939-4.004,0.939c-1.649,0-2.949-0.314-3.908-0.939c-0.952-0.628-1.686-1.44-2.198-2.447   c-0.512-1.007-0.84-2.147-0.99-3.434c-0.147-1.287-0.222-2.608-0.222-3.953v-27.679c0-1.386,0.075-2.727,0.222-4.028   c0.15-1.307,0.478-2.468,0.99-3.485c0.509-1.021,1.242-1.84,2.198-2.447c0.956-0.608,2.256-0.915,3.908-0.915   c1.679,0,2.973,0.365,3.881,1.113c0.908,0.741,1.574,1.693,2,2.867c0.43,1.167,0.676,2.468,0.744,3.901   c0.068,1.434,0.096,2.826,0.096,4.181h0.792c0.461-1.847,1.068-3.519,1.826-5.021c0.761-1.498,1.601-2.768,2.522-3.806   c0.922-1.034,1.911-1.833,2.963-2.393c1.058-0.56,2.109-0.84,3.164-0.84c1.287,0,2.335,0.14,3.14,0.42   c0.806,0.28,1.44,0.713,1.905,1.307c0.461,0.594,0.775,1.352,0.935,2.273C303.988,275.705,304.07,276.808,304.07,278.095z" fill="#d39e37" data-original="#00e7ff" class=""/>
	<path style="" d="M317.911,270.681v-8.701c0-1.379,0.072-2.734,0.218-4.055c0.15-1.314,0.488-2.492,1.014-3.533   c0.526-1.041,1.287-1.881,2.273-2.519c0.99-0.642,2.324-0.966,4.007-0.966c1.645,0,2.963,0.328,3.953,0.966   c0.986,0.642,1.737,1.481,2.246,2.519c0.512,1.041,0.843,2.219,0.99,3.533c0.147,1.321,0.222,2.673,0.222,4.055v8.701h4.055   c0.857,0,1.714,0.041,2.57,0.126c0.857,0.079,1.621,0.321,2.297,0.713s1.219,0.986,1.635,1.778c0.41,0.792,0.618,1.894,0.618,3.314   c0,1.348-0.208,2.42-0.618,3.212c-0.413,0.785-0.956,1.379-1.635,1.775c-0.676,0.399-1.44,0.652-2.297,0.768   c-0.857,0.119-1.714,0.174-2.57,0.174h-4.055v17.299c0,0.659,0.024,1.359,0.072,2.099c0.051,0.748,0.222,1.427,0.519,2.055   c0.297,0.628,0.741,1.147,1.335,1.56c0.594,0.406,1.434,0.614,2.519,0.614c1.188,0,2.202,0.092,3.041,0.273   c0.84,0.181,1.533,0.498,2.075,0.966c0.543,0.461,0.945,1.099,1.208,1.925c0.263,0.819,0.396,1.874,0.396,3.161   c0,1.321-0.307,2.461-0.915,3.413c-0.611,0.952-1.427,1.748-2.447,2.372c-1.024,0.628-2.208,1.085-3.56,1.379   c-1.352,0.3-2.768,0.447-4.25,0.447c-2.342,0-4.342-0.246-6.007-0.741c-1.666-0.495-3.048-1.195-4.151-2.099   c-1.106-0.908-1.98-1.993-2.621-3.267c-0.642-1.266-1.123-2.693-1.434-4.273c-0.314-1.58-0.512-3.287-0.594-5.113   c-0.082-1.833-0.123-3.748-0.123-5.762v-16.312h-2.772c-0.857,0-1.703-0.055-2.543-0.174c-0.84-0.113-1.591-0.365-2.249-0.768   c-0.659-0.393-1.195-0.986-1.608-1.775c-0.413-0.792-0.618-1.867-0.618-3.212c0-1.42,0.205-2.519,0.618-3.314   s0.945-1.386,1.608-1.778c0.662-0.393,1.41-0.635,2.249-0.713c0.84-0.085,1.686-0.126,2.543-0.126h2.785V270.681z" fill="#d39e37" data-original="#00e7ff" class=""/>
</g>
<g xmlns="http://www.w3.org/2000/svg">
</g>
<g xmlns="http://www.w3.org/2000/svg">
</g>
<g xmlns="http://www.w3.org/2000/svg">
</g>
<g xmlns="http://www.w3.org/2000/svg">
</g>
<g xmlns="http://www.w3.org/2000/svg">
</g>
<g xmlns="http://www.w3.org/2000/svg">
</g>
<g xmlns="http://www.w3.org/2000/svg">
</g>
<g xmlns="http://www.w3.org/2000/svg">
</g>
<g xmlns="http://www.w3.org/2000/svg">
</g>
<g xmlns="http://www.w3.org/2000/svg">
</g>
<g xmlns="http://www.w3.org/2000/svg">
</g>
<g xmlns="http://www.w3.org/2000/svg">
</g>
<g xmlns="http://www.w3.org/2000/svg">
</g>
<g xmlns="http://www.w3.org/2000/svg">
</g>
<g xmlns="http://www.w3.org/2000/svg">
</g>
</g></svg>
